<svg width="1024" height="1024" viewBox="0 0 1024 1024" fill="none" xmlns="http://www.w3.org/2000/svg">
  <defs>
    <linearGradient id="bg" x1="176" y1="136" x2="844" y2="900" gradientUnits="userSpaceOnUse">
      <stop stop-color="#152238"/>
      <stop offset="1" stop-color="#0A1324"/>
    </linearGradient>
    <radialGradient id="glow" cx="0" cy="0" r="1" gradientUnits="userSpaceOnUse"
      gradientTransform="translate(512 512) rotate(90) scale(310)">
      <stop stop-color="#2EE6C5" stop-opacity="0.28"/>
      <stop offset="1" stop-color="#2EE6C5" stop-opacity="0"/>
    </radialGradient>
    <linearGradient id="ring" x1="325" y1="302" x2="710" y2="731" gradientUnits="userSpaceOnUse">
      <stop stop-color="#76F7E3"/>
      <stop offset="1" stop-color="#4D8DFF"/>
    </linearGradient>
    <filter id="shadow" x="86" y="86" width="852" height="852" filterUnits="userSpaceOnUse" color-interpolation-filters="sRGB">
      <feFlood flood-opacity="0" result="BackgroundImageFix"/>
      <feColorMatrix in="SourceAlpha" type="matrix" values="0 0 0 0 0 0 0 0 0 0 0 0 0 0 0 0 0 0 127 0" result="hardAlpha"/>
      <feOffset dy="18"/>
      <feGaussianBlur stdDeviation="32"/>
      <feComposite in2="hardAlpha" operator="out"/>
      <feColorMatrix type="matrix" values="0 0 0 0 0.0235 0 0 0 0 0.0824 0 0 0 0 0.1804 0 0 0 0.45 0"/>
      <feBlend mode="normal" in2="BackgroundImageFix" result="effect1_dropShadow_1_1"/>
      <feBlend mode="normal" in="SourceGraphic" in2="effect1_dropShadow_1_1" result="shape"/>
    </filter>
  </defs>

  <rect x="32" y="32" width="960" height="960" rx="228" fill="url(#bg)"/>
  <rect x="32" y="32" width="960" height="960" rx="228" stroke="#233554" stroke-width="4"/>
  <circle cx="512" cy="512" r="320" fill="url(#glow)"/>

  <g filter="url(#shadow)">
    <circle cx="512" cy="512" r="162" fill="#0E1A2E" stroke="url(#ring)" stroke-width="24"/>
    <circle cx="512" cy="512" r="74" fill="#10223B" stroke="#89FFF0" stroke-width="14"/>
    <circle cx="512" cy="512" r="28" fill="#7EFCEB"/>

    <path d="M512 310V224" stroke="url(#ring)" stroke-width="22" stroke-linecap="round"/>
    <path d="M512 800V714" stroke="url(#ring)" stroke-width="22" stroke-linecap="round"/>
    <path d="M310 512H224" stroke="url(#ring)" stroke-width="22" stroke-linecap="round"/>
    <path d="M800 512H714" stroke="url(#ring)" stroke-width="22" stroke-linecap="round"/>
    <path d="M369 369L308 308" stroke="url(#ring)" stroke-width="18" stroke-linecap="round"/>
    <path d="M655 655L716 716" stroke="url(#ring)" stroke-width="18" stroke-linecap="round"/>
    <path d="M655 369L716 308" stroke="url(#ring)" stroke-width="18" stroke-linecap="round"/>
    <path d="M369 655L308 716" stroke="url(#ring)" stroke-width="18" stroke-linecap="round"/>

    <circle cx="512" cy="198" r="54" fill="#0E1A2E" stroke="#7FF9EC" stroke-width="16"/>
    <circle cx="512" cy="826" r="54" fill="#0E1A2E" stroke="#7FF9EC" stroke-width="16"/>
    <circle cx="198" cy="512" r="54" fill="#0E1A2E" stroke="#7FF9EC" stroke-width="16"/>
    <circle cx="826" cy="512" r="54" fill="#0E1A2E" stroke="#7FF9EC" stroke-width="16"/>
    <circle cx="290" cy="290" r="42" fill="#122441" stroke="#5EA4FF" stroke-width="14"/>
    <circle cx="734" cy="734" r="42" fill="#122441" stroke="#5EA4FF" stroke-width="14"/>
    <circle cx="734" cy="290" r="42" fill="#122441" stroke="#5EA4FF" stroke-width="14"/>
    <circle cx="290" cy="734" r="42" fill="#122441" stroke="#5EA4FF" stroke-width="14"/>
  </g>
</svg>
