<svg width="1024" height="1024" viewBox="0 0 1024 1024" fill="none" xmlns="http://www.w3.org/2000/svg">
  <defs>
    <linearGradient id="bg2" x1="162" y1="122" x2="850" y2="906" gradientUnits="userSpaceOnUse">
      <stop stop-color="#111C31"/>
      <stop offset="1" stop-color="#081221"/>
    </linearGradient>
    <linearGradient id="faceTop" x1="512" y1="260" x2="512" y2="468" gradientUnits="userSpaceOnUse">
      <stop stop-color="#77F6E2"/>
      <stop offset="1" stop-color="#48A7FF"/>
    </linearGradient>
    <linearGradient id="faceLeft" x1="316" y1="416" x2="548" y2="726" gradientUnits="userSpaceOnUse">
      <stop stop-color="#2E5EFF"/>
      <stop offset="1" stop-color="#18335F"/>
    </linearGradient>
    <linearGradient id="faceRight" x1="706" y1="402" x2="498" y2="734" gradientUnits="userSpaceOnUse">
      <stop stop-color="#79F5E2"/>
      <stop offset="1" stop-color="#173861"/>
    </linearGradient>
    <radialGradient id="cubeGlow" cx="0" cy="0" r="1" gradientUnits="userSpaceOnUse"
      gradientTransform="translate(512 544) rotate(90) scale(322)">
      <stop stop-color="#56D7FF" stop-opacity="0.24"/>
      <stop offset="1" stop-color="#56D7FF" stop-opacity="0"/>
    </radialGradient>
    <filter id="shadow2" x="150" y="142" width="724" height="758" filterUnits="userSpaceOnUse" color-interpolation-filters="sRGB">
      <feFlood flood-opacity="0" result="BackgroundImageFix"/>
      <feColorMatrix in="SourceAlpha" type="matrix" values="0 0 0 0 0 0 0 0 0 0 0 0 0 0 0 0 0 0 127 0" result="hardAlpha"/>
      <feOffset dy="20"/>
      <feGaussianBlur stdDeviation="30"/>
      <feComposite in2="hardAlpha" operator="out"/>
      <feColorMatrix type="matrix" values="0 0 0 0 0.0235 0 0 0 0 0.0824 0 0 0 0 0.1804 0 0 0 0.5 0"/>
      <feBlend mode="normal" in2="BackgroundImageFix" result="effect1_dropShadow_1_2"/>
      <feBlend mode="normal" in="SourceGraphic" in2="effect1_dropShadow_1_2" result="shape"/>
    </filter>
  </defs>

  <rect x="32" y="32" width="960" height="960" rx="228" fill="url(#bg2)"/>
  <rect x="32" y="32" width="960" height="960" rx="228" stroke="#213452" stroke-width="4"/>
  <circle cx="512" cy="550" r="332" fill="url(#cubeGlow)"/>

  <g filter="url(#shadow2)">
    <path d="M512 202L744 336L512 472L280 336L512 202Z" fill="url(#faceTop)" stroke="#A7FFF5" stroke-width="12" stroke-linejoin="round"/>
    <path d="M280 336L512 472V750L280 614V336Z" fill="url(#faceLeft)" stroke="#7BB5FF" stroke-width="12" stroke-linejoin="round"/>
    <path d="M744 336L512 472V750L744 614V336Z" fill="url(#faceRight)" stroke="#90FFF0" stroke-width="12" stroke-linejoin="round"/>

    <path d="M512 310L642 386L512 462L382 386L512 310Z" fill="#0E2038" stroke="#A6FFF4" stroke-width="10" stroke-linejoin="round"/>
    <path d="M512 462V650" stroke="#A6FFF4" stroke-width="12" stroke-linecap="round"/>

    <circle cx="512" cy="536" r="26" fill="#A6FFF4"/>

    <path d="M512 202V130" stroke="#65D8FF" stroke-width="18" stroke-linecap="round"/>
    <path d="M744 336L814 296" stroke="#65D8FF" stroke-width="18" stroke-linecap="round"/>
    <path d="M280 336L210 296" stroke="#65D8FF" stroke-width="18" stroke-linecap="round"/>
    <path d="M280 614L210 654" stroke="#65D8FF" stroke-width="18" stroke-linecap="round"/>
    <path d="M744 614L814 654" stroke="#65D8FF" stroke-width="18" stroke-linecap="round"/>
    <path d="M512 750V822" stroke="#65D8FF" stroke-width="18" stroke-linecap="round"/>

    <circle cx="512" cy="108" r="32" fill="#10213A" stroke="#78F6E3" stroke-width="12"/>
    <circle cx="840" cy="282" r="32" fill="#10213A" stroke="#78F6E3" stroke-width="12"/>
    <circle cx="184" cy="282" r="32" fill="#10213A" stroke="#78F6E3" stroke-width="12"/>
    <circle cx="184" cy="668" r="32" fill="#10213A" stroke="#78F6E3" stroke-width="12"/>
    <circle cx="840" cy="668" r="32" fill="#10213A" stroke="#78F6E3" stroke-width="12"/>
    <circle cx="512" cy="848" r="32" fill="#10213A" stroke="#78F6E3" stroke-width="12"/>
  </g>
</svg>
