<svg class="opsdog-desktop-icon" xmlns="http://www.w3.org/2000/svg" viewBox="0 0 256 256" role="img" aria-label="OpsDog desktop icon">
  <defs>
    <linearGradient id="shield" x1="44" y1="24" x2="214" y2="232" gradientUnits="userSpaceOnUse">
      <stop offset="0" stop-color="#7c8cff"/>
      <stop offset="0.55" stop-color="#4f6df5"/>
      <stop offset="1" stop-color="#16a6c9"/>
    </linearGradient>
    <linearGradient id="terminal" x1="72" y1="86" x2="190" y2="182" gradientUnits="userSpaceOnUse">
      <stop offset="0" stop-color="#ffffff"/>
      <stop offset="1" stop-color="#dbeafe"/>
    </linearGradient>
  </defs>
  <path id="shield" d="M128 18 212 52v62.8c0 52-32.8 98.8-84 119.2-51.2-20.4-84-67.2-84-119.2V52l84-34Z" fill="url(#shield)"/>
  <path d="M128 39 196 66.6v50.8c0 42-26 80-68 98.8-42-18.8-68-56.8-68-98.8V66.6L128 39Z" fill="none" stroke="rgba(255,255,255,.58)" stroke-width="8"/>
  <rect id="terminal" x="72" y="88" width="112" height="84" rx="20" fill="url(#terminal)" opacity=".96"/>
  <path d="m96 116 20 16-20 16" fill="none" stroke="#3f5fe8" stroke-width="13" stroke-linecap="round" stroke-linejoin="round"/>
  <path d="M130 152h32" fill="none" stroke="#111827" stroke-width="13" stroke-linecap="round"/>
  <circle cx="184" cy="64" r="21" fill="#22d3ee" stroke="#fff" stroke-width="8"/>
</svg>

