<svg xmlns="http://www.w3.org/2000/svg" viewBox="0 0 64 64" role="img" aria-label="OpsDog">
  <defs>
    <linearGradient id="opsdog-icon-bg" x1="12" y1="8" x2="54" y2="58" gradientUnits="userSpaceOnUse">
      <stop offset="0" stop-color="#7c8cff"/>
      <stop offset="0.55" stop-color="#4f6df5"/>
      <stop offset="1" stop-color="#16a6c9"/>
    </linearGradient>
    <linearGradient id="opsdog-icon-panel" x1="18" y1="20" x2="48" y2="47" gradientUnits="userSpaceOnUse">
      <stop offset="0" stop-color="#ffffff"/>
      <stop offset="1" stop-color="#dbeafe"/>
    </linearGradient>
  </defs>
  <path d="M32 5 53 13.5v15.7c0 13-8.2 24.7-21 29.8C19.2 53.9 11 42.2 11 29.2V13.5L32 5Z" fill="url(#opsdog-icon-bg)"/>
  <path d="M32 9.7 49 16.6v12.7c0 10.5-6.5 20-17 24.7-10.5-4.7-17-14.2-17-24.7V16.6l17-6.9Z" fill="none" stroke="rgba(255,255,255,.58)" stroke-width="2"/>
  <rect x="18" y="22" width="28" height="21" rx="5" fill="url(#opsdog-icon-panel)" opacity=".96"/>
  <path d="m24 29 5 4-5 4" fill="none" stroke="#3f5fe8" stroke-width="3.2" stroke-linecap="round" stroke-linejoin="round"/>
  <path d="M32.5 38h8" fill="none" stroke="#111827" stroke-width="3.2" stroke-linecap="round"/>
  <circle cx="46" cy="16" r="5.2" fill="#22d3ee" stroke="#fff" stroke-width="2"/>
</svg>

